<svg width="12" height="12" viewBox="0 0 11 11" fill="none" xmlns="http://www.w3.org/2000/svg">
<path fill-rule="evenodd" clip-rule="evenodd" d="M0.230782 0.230782C0.303753 0.157627 0.390438 0.0995869 0.485874 0.0599854C0.58131 0.0203839 0.683621 0 0.786947 0C0.890273 0 0.992584 0.0203839 1.08802 0.0599854C1.18346 0.0995869 1.27014 0.157627 1.34311 0.230782L5.50021 4.38945L9.6573 0.230782C9.73034 0.157746 9.81704 0.0998099 9.91247 0.0602828C10.0079 0.0207557 10.1102 0.000411285 10.2135 0.000411285C10.3168 0.000411285 10.419 0.0207557 10.5145 0.0602828C10.6099 0.0998099 10.6966 0.157746 10.7696 0.230782C10.8427 0.303819 10.9006 0.390526 10.9401 0.485953C10.9797 0.58138 11 0.683658 11 0.786947C11 0.890236 10.9797 0.992515 10.9401 1.08794C10.9006 1.18337 10.8427 1.27008 10.7696 1.34311L6.61096 5.50021L10.7696 9.6573C10.8427 9.73034 10.9006 9.81704 10.9401 9.91247C10.9797 10.0079 11 10.1102 11 10.2135C11 10.3168 10.9797 10.419 10.9401 10.5145C10.9006 10.6099 10.8427 10.6966 10.7696 10.7696C10.6966 10.8427 10.6099 10.9006 10.5145 10.9401C10.419 10.9797 10.3168 11 10.2135 11C10.1102 11 10.0079 10.9797 9.91247 10.9401C9.81704 10.9006 9.73034 10.8427 9.6573 10.7696L5.50021 6.61096L1.34311 10.7696C1.27008 10.8427 1.18337 10.9006 1.08794 10.9401C0.992515 10.9797 0.890236 11 0.786947 11C0.683658 11 0.58138 10.9797 0.485953 10.9401C0.390526 10.9006 0.303819 10.8427 0.230782 10.7696C0.157746 10.6966 0.0998099 10.6099 0.0602828 10.5145C0.0207557 10.419 0.000411285 10.3168 0.000411285 10.2135C0.000411285 10.1102 0.0207557 10.0079 0.0602828 9.91247C0.0998099 9.81704 0.157746 9.73034 0.230782 9.6573L4.38945 5.50021L0.230782 1.34311C0.157627 1.27014 0.0995869 1.18346 0.0599854 1.08802C0.0203839 0.992584 0 0.890273 0 0.786947C0 0.683621 0.0203839 0.58131 0.0599854 0.485874C0.0995869 0.390438 0.157627 0.303753 0.230782 0.230782Z" fill="#B4B4B4"/>
</svg>
